# xmcd
#
# Track frame offsets:
#	150
#	13059
#	29073
#	43019
#	57193
#	71150
#	84603
#	96097
#	110453
#	124761
#	137713
#	149525
#	163422
#	175889
#	190788
#	203394
#	215151
#
# Disc length: 3045 seconds
#
# Revision: 1
# Processed by: cddbd v1.5.2PL0 Copyright (c) Steve Scherf et al.
# Submitted via: audiograbber 1.83.01
#
DISCID=030be311
DTITLE=Harry Torrani - The Greatest Yodeller of Them All Disc One 
DYEAR=2011
DGENRE=
TTITLE0=Yodelling Boy
TTITLE1=Crazy Yodel
TTITLE2=Twenty Miles to Nowhere
TTITLE3=Starlight Serenade
TTITLE4=Mocking Bird Yodel
TTITLE5=Prairie Yodel
TTITLE6=Mountain Echo Yodel
TTITLE7=Dutch Girl Yodel
TTITLE8=Cuckoo Yodel
TTITLE9=Australian Yodel
TTITLE10=Happy and Free Yodel
TTITLE11=My Guitar and Me
TTITLE12=The Shepherd's Yodel
TTITLE13=Fireside Yodel
TTITLE14=The Roaming Yodeller Version 1
TTITLE15=The Roaming Yodeler Version 2
TTITLE16=Dan Dan the Yodeling Man 
EXTD=
EXTT0=
EXTT1=
EXTT2=
EXTT3=
EXTT4=
EXTT5=
EXTT6=
EXTT7=
EXTT8=
EXTT9=
EXTT10=
EXTT11=
EXTT12=
EXTT13=
EXTT14=
EXTT15=
EXTT16=
PLAYORDER=
